Coordinates
version=1
nRows=32
nColumns=12
inDegrees=yes

Units are S.I. units (second, meters, Newtons, ...)
Angles are in degrees

endheader
time	SC_y	SC_z	SC_x	AC_y	AC_z	AC_x	GH_y	GH_z	GH_yy	EL_x	PS_y
       0.0              -51.44          23.93          66.84           52.8         -10.57         -19.82          73.96          8.827         -18.49           23.0            8.4
   0.01324              -51.43          23.93          66.83           52.8         -10.57         -19.82          73.97           8.83         -18.48          23.01          8.402
   0.02647              -51.42          23.93          66.83          52.79         -10.57         -19.81          73.99          8.834         -18.48          23.03          8.405
   0.03971              -51.42          23.93          66.83          52.79         -10.57         -19.81           74.0          8.837         -18.48          23.04          8.409
   0.05295              -51.41          23.93          66.82          52.79         -10.57          -19.8          74.01          8.841         -18.47          23.06          8.412
   0.06619              -51.41          23.93          66.82          52.78         -10.57          -19.8          74.03          8.846         -18.47          23.07          8.416
   0.07942               -51.4          23.93          66.81          52.78         -10.57         -19.79          74.05           8.85         -18.47          23.09          8.419
   0.09266              -51.39          23.93           66.8          52.78         -10.58         -19.78          74.06          8.855         -18.46          23.11          8.424
    0.1059              -51.38          23.93           66.8          52.77         -10.58         -19.77          74.08           8.86         -18.46          23.13          8.428
    0.1191              -51.37          23.93          66.79          52.77         -10.58         -19.77           74.1          8.865         -18.45          23.15          8.433
    0.1324              -51.36          23.93          66.78          52.76         -10.58         -19.76          74.12          8.871         -18.45          23.17          8.438
    0.1456              -51.35          23.94          66.78          52.76         -10.59         -19.75          74.15          8.877         -18.44          23.19          8.443
    0.1588              -51.34          23.94          66.77          52.75         -10.59         -19.74          74.17          8.884         -18.44          23.22          8.449
    0.1721              -51.33          23.94          66.76          52.75         -10.59         -19.72           74.2          8.891         -18.43          23.25          8.455
    0.1853              -51.32          23.94          66.75          52.74         -10.59         -19.71          74.23          8.899         -18.42          23.28          8.462
    0.1986               -51.3          23.94          66.74          52.73          -10.6          -19.7          74.26          8.908         -18.42          23.31           8.47
    0.2118              -51.29          23.94          66.73          52.72          -10.6         -19.69           74.3          8.917         -18.41          23.34          8.478
     0.225              -51.27          23.94          66.71          52.71          -10.6         -19.67          74.33          8.927          -18.4          23.38          8.487
    0.2383              -51.25          23.94           66.7          52.71         -10.61         -19.65          74.37          8.939         -18.39          23.42          8.496
    0.2515              -51.23          23.94          66.68           52.7         -10.61         -19.63          74.42          8.951         -18.38          23.47          8.507
    0.2647              -51.21          23.94          66.67          52.68         -10.62         -19.61          74.47          8.964         -18.37          23.52          8.519
     0.278              -51.18          23.94          66.65          52.67         -10.62         -19.59          74.52          8.979         -18.35          23.58          8.531
    0.2912              -51.16          23.95          66.63          52.66         -10.63         -19.57          74.58          8.995         -18.34          23.64          8.545
    0.3045              -51.13          23.95          66.61          52.64         -10.64         -19.54          74.65          9.013         -18.32          23.71          8.561
    0.3177              -51.09          23.95          66.58          52.63         -10.64         -19.51          74.72          9.033          -18.3          23.78          8.578
    0.3309              -51.06          23.95          66.55          52.61         -10.65         -19.47          74.81          9.055         -18.28          23.87          8.598
    0.3442              -51.01          23.95          66.52          52.59         -10.66         -19.43           74.9           9.08         -18.26          23.96           8.62
    0.3574              -50.97          23.96          66.49          52.56         -10.67         -19.39           75.0          9.109         -18.24          24.07          8.644
    0.3706              -50.91          23.96          66.45          52.54         -10.68         -19.34          75.12           9.14         -18.21          24.19          8.672
    0.3839              -50.85          23.96           66.4          52.51          -10.7         -19.29          75.25          9.176         -18.18          24.32          8.703
    0.3971              -50.79          23.97          66.35          52.47         -10.71         -19.22          75.41          9.218         -18.14          24.48          8.739
    0.4103              -50.71          23.97          66.29          52.43         -10.73         -19.15          75.58          9.265          -18.1          24.66           8.78
